<?xml version="1.0" encoding="utf-8"?>
<!-- Generator: Adobe Illustrator 26.0.0, SVG Export Plug-In . SVG Version: 6.00 Build 0)  -->
<svg version="1.1" id="Capa_1" xmlns="http://www.w3.org/2000/svg" xmlns:xlink="http://www.w3.org/1999/xlink" x="0px" y="0px"
	 viewBox="0 0 50 50" style="enable-background:new 0 0 50 50;" xml:space="preserve">
<path d="M25,2C12.3,2,2,12.3,2,25s10.3,23,23,23s23-10.3,23-23S37.7,2,25,2z M25,4c11.6,0,21,9.4,21,21s-9.4,21-21,21S4,36.6,4,25
	S13.4,4,25,4z M26.6,10c-2.7,0-4.7,0.9-5.9,2.4S19,16,19,18.2V20h-2c-0.6,0-1,0.4-1,1v5c0,0.6,0.4,1,1,1h2v12c0,0.6,0.4,1,1,1h6
	c0.6,0,1-0.4,1-1V27h4c0.5,0,0.9-0.3,1-0.8l1-5c0.1-0.5-0.2-1.1-0.8-1.2c-0.1,0-0.1,0-0.2,0h-5v-2.2c0-0.5,0-0.5,0.2-0.6
	c0.1-0.1,0.6-0.2,1.5-0.2H32c0.6,0,1-0.4,1-1v-4c0-0.4-0.3-0.8-0.7-0.9C32.3,11.1,29.5,10,26.6,10z M26.6,12c1.9,0,3.6,0.5,4.4,0.8
	V15h-2.3c-1,0-1.9,0.1-2.6,0.6C25.4,16,25,16.9,25,17.8V21c0,0.6,0.4,1,1,1h4.8l-0.6,3H26c-0.6,0-1,0.4-1,1v12h-4V26
	c0-0.6-0.4-1-1-1h-2v-3h2c0.6,0,1-0.4,1-1v-2.8c0-2,0.4-3.5,1.2-4.6S24.3,12,26.6,12z"/>
</svg>
