<?xml version="1.0" encoding="utf-8"?>
<!-- Generator: Adobe Illustrator 26.0.0, SVG Export Plug-In . SVG Version: 6.00 Build 0)  -->
<svg version="1.1" id="Capa_1" xmlns="http://www.w3.org/2000/svg" xmlns:xlink="http://www.w3.org/1999/xlink" x="0px" y="0px"
	 viewBox="0 0 50 50" style="enable-background:new 0 0 50 50;" xml:space="preserve">
<style type="text/css">
	.st0{fill:#FFFFFF;stroke:#000000;stroke-miterlimit:10;}
	.st1{stroke:#000000;stroke-miterlimit:10;}
</style>
<path d="M25,2C12.3,2,2,12.3,2,25c0,12.7,10.3,23,23,23s23-10.3,23-23C48,12.3,37.7,2,25,2z M25,46C13.4,46,4,36.6,4,25S13.4,4,25,4
	s21,9.4,21,21S36.6,46,25,46z"/>
<g>
	<path class="st0" d="M15.6,20.3c-0.2,0-0.3,0-0.5,0c0,4.5,0,9,0,13.5c0.2,0,0.3,0,0.5,0C15.6,29.4,15.6,24.9,15.6,20.3z"/>
	<path class="st0" d="M34.3,33.9c0.2,0,0.3,0,0.5,0c0-4.5,0-9.1,0-13.6c-0.2,0-0.3,0-0.5,0C34.3,24.9,34.3,29.4,34.3,33.9z"/>
	<path class="st0" d="M18.9,20.3c-0.1,0-0.3,0-0.4,0c0,4,0,8,0,12c0.1,0,0.3,0,0.4,0C18.9,28.3,18.9,24.3,18.9,20.3z"/>
	<path class="st0" d="M37.7,32.3c0.2,0,0.3,0,0.5,0c0-4,0-8,0-12c-0.2,0-0.3,0-0.5,0C37.7,24.3,37.7,28.3,37.7,32.3z"/>
	<path class="st0" d="M12.2,20.5c-0.2,0-0.3,0-0.5,0.1c0,3.8,0,7.7,0,11.5c0.2,0,0.3,0,0.5,0C12.2,28.2,12.2,24.4,12.2,20.5z"/>
	<path class="st0" d="M31,32.1c0.2,0,0.3,0,0.5,0c0-3.8,0-7.7,0-11.5c-0.2,0-0.3,0-0.5,0C31,24.4,31,28.2,31,32.1z"/>
	<path class="st0" d="M8.2,27c0.1,0,0.3,0,0.4,0c0-2.2,0-4.4,0-6.5c-0.1,0-0.3,0-0.4,0C8.2,22.6,8.2,24.8,8.2,27z"/>
	<path class="st0" d="M22.3,20.4c-0.2,0-0.3,0-0.5,0c0,2.2,0,4.4,0,6.5c0.2,0,0.3,0,0.5,0C22.3,24.8,22.3,22.6,22.3,20.4z"/>
	<path class="st0" d="M27.6,27c0.2,0,0.3,0,0.5,0c0-2.2,0-4.4,0-6.5c-0.2,0-0.3,0-0.5,0C27.6,22.6,27.6,24.8,27.6,27z"/>
	<path class="st0" d="M41.8,20.5c-0.2,0-0.3,0-0.5,0c0,2.2,0,4.4,0,6.5c0.2,0,0.3,0,0.5,0C41.8,24.8,41.8,22.6,41.8,20.5z"/>
	<path class="st1" d="M15.6,20.3c0,4.5,0,9,0,13.6c-0.2,0-0.3,0-0.5,0c0-4.5,0-9,0-13.5C15.3,20.4,15.4,20.4,15.6,20.3z"/>
	<path class="st1" d="M34.3,33.9c0-4.5,0-9,0-13.5c0.2,0,0.3,0,0.5,0c0,4.5,0,9.1,0,13.6C34.7,33.9,34.5,33.9,34.3,33.9z"/>
	<path class="st1" d="M18.9,20.3c0,4,0,8,0,12c-0.1,0-0.3,0-0.4,0c0-4,0-8,0-12C18.7,20.3,18.8,20.3,18.9,20.3z"/>
	<path class="st1" d="M37.7,32.3c0-4,0-8,0-12c0.2,0,0.3,0,0.5,0c0,4,0,8,0,12C38.1,32.3,37.9,32.3,37.7,32.3z"/>
	<path class="st1" d="M12.2,20.5c0,3.9,0,7.7,0,11.6c-0.2,0-0.3,0-0.5,0c0-3.8,0-7.7,0-11.5C11.8,20.6,12,20.5,12.2,20.5z"/>
	<path class="st1" d="M31,32.1c0-3.8,0-7.7,0-11.5c0.2,0,0.3,0,0.5,0c0,3.8,0,7.7,0,11.5C31.3,32.1,31.2,32.1,31,32.1z"/>
	<path class="st1" d="M8.2,27c0-2.2,0-4.4,0-6.5c0.1,0,0.3,0,0.4,0c0,2.2,0,4.4,0,6.5C8.5,27,8.4,27,8.2,27z"/>
	<path class="st1" d="M22.3,20.4c0,2.2,0,4.4,0,6.5c-0.2,0-0.3,0-0.5,0c0-2.2,0-4.4,0-6.5C22,20.4,22.1,20.4,22.3,20.4z"/>
	<path class="st1" d="M27.6,27c0-2.2,0-4.4,0-6.6c0.2,0,0.3,0,0.5,0c0,2.2,0,4.4,0,6.5C28,27,27.8,27,27.6,27z"/>
	<path class="st1" d="M41.8,20.5c0,2.2,0,4.3,0,6.5c-0.2,0-0.3,0-0.5,0c0-2.2,0-4.4,0-6.5C41.4,20.5,41.6,20.5,41.8,20.5z"/>
</g>
</svg>
