<?xml version="1.0" encoding="utf-8"?>
<!-- Generator: Adobe Illustrator 26.0.0, SVG Export Plug-In . SVG Version: 6.00 Build 0)  -->
<svg version="1.1" id="Capa_1" xmlns="http://www.w3.org/2000/svg" xmlns:xlink="http://www.w3.org/1999/xlink" x="0px" y="0px"
	 viewBox="0 0 50 50" style="enable-background:new 0 0 50 50;" xml:space="preserve">
<path d="M18.85,9.98c-4.89,0-8.88,3.98-8.88,8.88v12.29c0,4.89,3.98,8.88,8.88,8.88h12.29c4.89,0,8.88-3.98,8.88-8.88V18.85
	c0-4.89-3.98-8.88-8.88-8.88H18.85z M19.32,12.37h11.37c3.84,0,6.95,3.1,6.95,6.95v11.37c0,3.84-3.1,6.95-6.95,6.95H19.32
	c-3.84,0-6.95-3.1-6.95-6.95V19.32C12.37,15.47,15.47,12.37,19.32,12.37z M33.19,15.44c-0.75,0-1.37,0.61-1.37,1.37
	c0,0.75,0.61,1.37,1.37,1.37s1.37-0.61,1.37-1.37C34.56,16.05,33.95,15.44,33.19,15.44z M25,17.49c-4.14,0-7.51,3.37-7.51,7.51
	s3.37,7.51,7.51,7.51s7.51-3.37,7.51-7.51S29.14,17.49,25,17.49z M25,19.81c2.88,0,5.19,2.32,5.19,5.19s-2.32,5.19-5.19,5.19
	s-5.19-2.32-5.19-5.19S22.12,19.81,25,19.81z"/>
<path d="M25,2C12.31,2,2,12.31,2,25s10.31,23,23,23s23-10.31,23-23S37.69,2,25,2z M25,4c11.61,0,21,9.39,21,21s-9.39,21-21,21
	S4,36.61,4,25S13.39,4,25,4z"/>
</svg>
