<?xml version="1.0" encoding="utf-8"?>
<!-- Generator: Adobe Illustrator 26.0.0, SVG Export Plug-In . SVG Version: 6.00 Build 0)  -->
<svg version="1.1" id="Capa_1" xmlns="http://www.w3.org/2000/svg" xmlns:xlink="http://www.w3.org/1999/xlink" x="0px" y="0px"
	 viewBox="0 0 50 50" style="enable-background:new 0 0 50 50;" xml:space="preserve">
<path d="M24.44,13.61c-4.7,0-9.11,0.36-11.46,0.85c-1.57,0.36-2.92,1.42-3.2,3.06C9.5,19.23,9.21,21.8,9.21,25s0.28,5.69,0.64,7.47
	c0.29,1.57,1.64,2.71,3.2,3.06c2.49,0.5,6.76,0.85,11.46,0.85s8.97-0.36,11.46-0.85c1.57-0.36,2.92-1.42,3.2-3.06
	c0.29-1.78,0.64-4.34,0.71-7.54c0-3.2-0.36-5.77-0.71-7.55c-0.28-1.57-1.64-2.71-3.2-3.06C33.48,13.97,29.14,13.61,24.44,13.61z
	 M24.45,15.67c4.8,0,8.66,0.4,10.53,0.73c1,0.27,1.8,0.93,1.93,1.8c0.4,2.13,0.67,4.4,0.67,6.73c-0.07,2.86-0.4,5.2-0.67,6.86
	c-0.2,1.27-1.53,1.67-1.93,1.8c-2.4,0.47-6.4,0.8-10.4,0.8s-8.07-0.27-10.4-0.8c-1-0.27-1.8-0.93-1.93-1.8
	c-0.53-1.87-0.73-4.33-0.73-6.8c0-3.07,0.27-5.33,0.53-6.73c0.2-1.27,1.6-1.67,1.93-1.8C16.18,16,20.25,15.67,24.45,15.67z
	 M20.14,18.86v12.28L30.89,25L20.14,18.86z M22.18,21.93L27.52,25l-5.33,3.07V21.93z"/>
<path d="M25,2C12.31,2,2,12.31,2,25s10.31,23,23,23s23-10.31,23-23S37.69,2,25,2z M25,4c11.61,0,21,9.39,21,21s-9.39,21-21,21
	S4,36.61,4,25S13.39,4,25,4z"/>
</svg>
